<?xml version="1.0" encoding="UTF-8" standalone="no"?>
<!-- Created with Inkscape (http://www.inkscape.org/) -->

<svg
   width="720"
   height="150.00049"
   viewBox="0 0 190.49999 39.687629"
   version="1.1"
   id="svg1"
   inkscape:version="1.3.2 (091e20ef0f, 2023-11-25)"
   sodipodi:docname="title.svg"
   xmlns:inkscape="http://www.inkscape.org/namespaces/inkscape"
   xmlns:sodipodi="http://sodipodi.sourceforge.net/DTD/sodipodi-0.dtd"
   xmlns="http://www.w3.org/2000/svg"
   xmlns:svg="http://www.w3.org/2000/svg">
  <sodipodi:namedview
     id="namedview1"
     pagecolor="#505050"
     bordercolor="#eeeeee"
     borderopacity="1"
     inkscape:showpageshadow="0"
     inkscape:pageopacity="0"
     inkscape:pagecheckerboard="0"
     inkscape:deskcolor="#d1d1d1"
     inkscape:document-units="px"
     inkscape:zoom="0.4850447"
     inkscape:cx="471.0906"
     inkscape:cy="-202.04323"
     inkscape:window-width="1920"
     inkscape:window-height="1048"
     inkscape:window-x="0"
     inkscape:window-y="0"
     inkscape:window-maximized="1"
     inkscape:current-layer="layer1"
     showgrid="false" />
  <defs
     id="defs1" />
  <g
     inkscape:label="Calque 1"
     inkscape:groupmode="layer"
     id="layer1"
     transform="translate(-9.9131089,-249.67675)">
    <path
       id="path22"
       style="fill:#ffffff;fill-opacity:1;stroke-width:0.325412;paint-order:fill markers stroke"
       d="m 191.12754,249.67715 -2.14663,7.69127 0.40365,2.03749 2.55027,-8.1102 6.80547,-1.61856 z m -159.685055,7.5e-4 c -3.912394,0.0866 -0.37374,5.43259 -5.221869,6.73352 -5.171341,1.38765 -4.377168,-5.98829 -8.624597,-2.72447 -4.247424,3.26388 3.072918,4.40461 0.396033,9.04779 -2.67688,4.64315 -7.323583,-1.13494 -8.0223871,4.18068 -0.6988087,5.31558 5.2827121,0.93861 6.6683681,6.11737 1.385656,5.17879 -5.979715,4.38348 -2.720551,8.637 3.259164,4.25355 4.39828,-3.07679 9.034774,-0.39605 4.636498,2.68072 -1.133295,7.33412 4.174666,8.03393 5.307959,0.69982 0.937252,-5.29089 6.108591,-6.67851 5.171339,-1.38766 4.377172,5.98888 8.624597,2.72501 3.580986,-2.75174 -1.059916,-3.99432 -1.000418,-7.09909 h 1.06461 v -1.36958 h -0.403104 v 0.4075 h -6.176591 v 0.96208 h 4.834539 c 0.455473,2.49514 4.005066,3.66764 0.887266,6.06345 -3.969593,3.05036 -3.227397,-3.84319 -8.060467,-2.54631 -4.833073,1.29685 -0.747998,6.89508 -5.70875,6.24104 -4.960756,-0.65403 0.431637,-5.00283 -3.901579,-7.50821 -4.333209,-2.50539 -5.398012,4.34522 -8.443987,0.3699 -3.045977,-3.97529 3.83768,-3.23148 2.542662,-8.07152 -1.295017,-4.84002 -6.885176,-0.7496 -6.232079,-5.71751 0.653096,-4.96788 4.995644,0.43229 7.497426,-3.90719 2.501783,-4.33945 -4.339511,-5.40577 -0.369921,-8.45614 3.969595,-3.05033 3.227396,3.84321 8.060468,2.54633 4.531003,-1.21583 1.22376,-6.2119 4.880236,-6.2928 0.243765,-0.005 0.518465,0.0109 0.828514,0.0517 4.960755,0.65404 -0.431634,5.00285 3.901577,7.50821 4.333214,2.50539 5.398013,-4.34574 8.443988,-0.37045 2.674399,3.49036 -2.30465,3.34478 -2.683014,6.53305 0.271309,-0.16084 0.553215,-0.29325 0.851363,-0.38244 0.44479,-3.36645 5.715717,-3.22617 2.866342,-6.94491 -3.259163,-4.25351 -4.398821,3.07681 -9.035319,0.39606 -4.636493,-2.68073 1.133296,-7.33411 -4.174665,-8.03392 -0.331751,-0.0437 -0.625896,-0.0614 -0.886722,-0.0556 z m 154.381045,3.93552 -1.43019,2.04457 0.52497,1.43223 -1.43399,1.01712 3.54417,6.12827 0.41126,-0.26749 5.14136,14.02548 -0.4118,0.0681 0.46512,0.0774 4.11483,11.22528 -3.39403,-11.10542 2.86362,0.4756 0.10118,6.24377 0.42923,0.58891 v -6.89697 l 3.66384,-0.60852 -3.66384,-0.60798 v -2.77459 l 3.66384,-0.60797 -3.66384,-0.60853 v -2.77458 l 3.66384,-0.60798 -3.66384,-0.60853 v -2.77404 l 3.66384,-0.60852 -3.66384,-0.60798 v -2.77459 l 3.66384,-0.60852 -3.66384,-0.60798 v -2.77459 l 3.66384,-0.60798 -3.66384,-0.60852 v -2.40903 h -0.91611 l 0.0392,2.40249 -3.70301,0.61506 3.72315,0.61779 0.0446,2.74735 -3.76774,0.62541 3.78841,0.62922 0.0446,2.72556 -3.83302,0.63631 3.85369,0.64011 0.044,2.70323 -3.89776,0.64775 3.91898,0.65047 0.0435,2.68251 -3.9625,0.65811 3.98425,0.66137 0.0429,2.66071 -2.95556,0.49086 -4.50977,-14.75602 0.5315,-0.3454 -1.52321,-7.69289 -1.20388,0.85368 z m 1.19191,3.90011 0.71591,3.61572 -1.04993,0.68316 -1.66573,-2.88082 z M 79.786795,260.2576 v 3.30139 h 0.403647 v -3.30139 z m -50.058459,0.79158 c -4.662224,0 -8.45922,3.80247 -8.45922,8.47139 0,1.36335 0.325818,2.65195 0.900323,3.79442 -1.836706,-3.73644 -0.29839,-8.44229 3.584968,-10.68758 3.751856,-2.16923 8.392741,-1.28956 10.788634,1.89367 -1.540929,-2.10093 -4.019442,-3.4719 -6.814705,-3.4719 z m 68.069251,3.36948 v 2.55122 H 96.62472 c 0.112369,0.27024 0.185217,0.58737 0.208898,0.96209 h 1.367623 v -3.43649 c -0.140895,-0.0334 -0.266571,-0.0481 -0.403654,-0.0768 z m -31.066825,0.0447 c -1.092326,0 -1.952326,0.40912 -2.580199,1.2274 -0.627872,0.81826 -1.01077,2.02443 -1.148386,3.61791 h 0.53149 c 0.19066,-1.12164 0.526631,-2.01285 1.020002,-2.65582 0.627872,-0.81827 1.487872,-1.2274 2.580198,-1.2274 1.169735,0 2.064287,0.40913 2.683558,1.2274 0.113176,0.14593 0.20638,0.3197 0.300833,0.49139 -0.168786,-0.57505 -0.401025,-1.06288 -0.703938,-1.45348 -0.619272,-0.81828 -1.513824,-1.2274 -2.683558,-1.2274 z m 39.014148,0 c -1.27296,0 -2.23661,0.50401 -2.89028,1.51177 -0.64508,0.99915 -0.96724,2.48051 -0.96724,4.44435 0,1.79548 0.28702,3.1713 0.83341,4.1676 -0.27691,-0.87318 -0.43031,-1.92732 -0.43031,-3.20551 0,-1.96385 0.32271,-3.44519 0.96779,-4.44434 0.65367,-1.00778 1.61732,-1.51178 2.89028,-1.51178 1.27294,0 2.2316,0.504 2.87667,1.51178 0.0574,0.0877 0.0984,0.19959 0.15068,0.29472 -0.14912,-0.47142 -0.32416,-0.905 -0.55432,-1.25682 -0.64508,-1.00776 -1.60374,-1.51177 -2.87668,-1.51177 z m 32.92459,0 c -1.27294,0 -2.23607,0.50401 -2.88974,1.51177 -0.64508,0.99915 -0.96777,2.48051 -0.96777,4.44435 0,1.79548 0.287,3.1713 0.83341,4.1676 -0.27692,-0.87318 -0.42977,-1.92732 -0.42977,-3.20551 0,-1.96385 0.32217,-3.44519 0.96723,-4.44434 0.65368,-1.00778 1.61734,-1.51178 2.89027,-1.51178 1.27297,0 2.23162,0.504 2.87669,1.51178 0.0573,0.0877 0.0984,0.19959 0.1507,0.29472 -0.14913,-0.47142 -0.32364,-0.905 -0.5538,-1.25682 -0.64508,-1.00776 -1.60428,-1.51177 -2.87722,-1.51177 z m 40.83328,0 c -1.09233,0 -1.95233,0.40912 -2.5802,1.2274 -0.62787,0.81826 -1.01077,2.02443 -1.14838,3.61791 h 0.53148 c 0.19067,-1.12164 0.52718,-2.01285 1.02055,-2.65582 0.62787,-0.81827 1.48786,-1.2274 2.5802,-1.2274 1.16974,0 2.06428,0.40913 2.68356,1.2274 0.11307,0.1458 0.2059,0.31934 0.30029,0.49084 -0.16878,-0.57482 -0.40113,-1.06244 -0.70394,-1.45293 -0.61928,-0.81828 -1.51383,-1.2274 -2.68356,-1.2274 z m -140.046068,0.0577 v 1.48018 c 0.124076,-0.25827 0.260305,-0.49478 0.403649,-0.71858 v -0.7616 z m 44.794157,0 v 0.42057 h -4.464074 v 8.7209 c 0,1.16281 0.112024,1.90794 0.335645,2.23525 0.04209,0.0616 0.09743,0.11128 0.15287,0.16126 -0.0564,-0.37318 -0.08487,-0.85067 -0.08487,-1.43442 v -8.72091 h 4.464074 v -1.38265 z m 6.515501,0 v 1.48018 c 0.124336,-0.25596 0.259659,-0.49135 0.403108,-0.7115 v -0.76868 z m 28.53777,0 v 1.48018 c 0.12331,-0.26152 0.25995,-0.50022 0.40365,-0.72565 v -0.75453 z m 32.92459,0 v 1.48018 c 0.12397,-0.25802 0.26045,-0.49441 0.40364,-0.71803 v -0.76215 z m -117.013052,0.39442 v 0.96209 h 1.867013 v -0.96209 z m 51.309662,0 v 0.96209 h 1.867012 v -0.96209 z m 36.15922,0 c -1.05554,0 -1.86333,0.38291 -2.43658,1.12716 -0.0496,0.071 -0.1022,0.13694 -0.1496,0.21192 -0.0723,0.11001 -0.13673,0.23016 -0.1991,0.35301 -0.0391,0.0717 -0.0791,0.1415 -0.11642,0.21629 -0.31794,0.73652 -0.47872,1.67567 -0.47872,2.82089 v 6.27863 h 0.40365 v -5.31709 c 0,-1.54178 0.28814,-2.71281 0.86441,-3.51386 0.57628,-0.80965 1.41508,-1.21486 2.516,-1.21486 1.00918,0 1.71697,0.30167 2.13576,0.8929 -0.0956,-0.36567 -0.2089,-0.68589 -0.35904,-0.91143 -0.41285,-0.62877 -1.13963,-0.94356 -2.18036,-0.94356 z m 25.30314,0 v 0.96209 h 1.86755 v -0.96209 z m -105.279492,0.0262 c -0.913115,0 -1.629088,0.31684 -2.170565,0.9136 -0.237709,0.31075 -0.453821,0.6592 -0.646274,1.05089 -0.286128,0.72482 -0.434657,1.63325 -0.434657,2.73864 v 6.27862 h 0.403649 v -5.31709 c 0,-1.53316 0.275331,-2.70028 0.825793,-3.50132 0.3277,-0.46953 0.751658,-0.7842 1.250661,-0.97844 0.263267,-0.10246 0.551235,-0.16532 0.862241,-0.19121 -0.311002,0.0259 -0.598946,0.0887 -0.862241,0.19121 0.0093,0.0379 0.0147,0.0731 0.02502,0.11169 0.639843,2.39136 2.327524,2.60214 3.793321,2.80291 -0.0041,-0.0708 -0.0032,-0.15083 -0.0087,-0.21901 -1.22655,-0.26699 -2.405194,-0.85907 -2.928359,-2.81434 -0.0067,-0.0252 -0.01,-0.0481 -0.01632,-0.073 0.104312,-0.009 0.199854,-0.031 0.309537,-0.031 0.95471,0 1.63858,0.29249 2.051429,0.8782 0.0014,0.002 0.002,0.005 0.0033,0.007 -0.10094,-0.38946 -0.231102,-0.72232 -0.406912,-0.96808 -0.412848,-0.58571 -1.096175,-0.87873 -2.050885,-0.87873 z m 8.295476,0 c -1.057922,0 -1.866636,0.40021 -2.425702,1.20125 -0.550463,0.80105 -0.82525,1.96869 -0.82525,3.50188 v 6.27862 h 0.403105 v -1.49215 c 0.656056,-0.23682 1.14038,-0.85838 1.330628,-2.30553 0.244122,-1.85697 -0.33466,-2.52261 -1.240324,-2.83452 -0.02119,0.16094 -0.03741,0.32869 -0.05114,0.49958 0.01281,-0.17216 0.02995,-0.33858 0.05114,-0.49958 0.118175,-0.89779 0.356734,-1.63504 0.735489,-2.18621 0.559066,-0.80104 1.367781,-1.20125 2.425702,-1.20125 0.948824,0 1.629104,0.29445 2.042726,0.88146 -0.09986,-0.37954 -0.225755,-0.70873 -0.394944,-0.95228 -0.412849,-0.59432 -1.09672,-0.89127 -2.05143,-0.89127 z m 24.710172,0 v 0.96209 h 1.686407 v -0.96209 z m 18.677742,0 c -1.169735,0 -2.068742,0.40466 -2.696616,1.21433 -0.619269,0.80965 -0.928612,1.97283 -0.928612,3.4888 v 6.27862 h 0.403108 v -5.31709 c 0,-1.51594 0.309881,-2.67859 0.929151,-3.48825 0.627874,-0.80965 1.526334,-1.21432 2.696077,-1.21432 0.645069,0 1.135539,0.168 1.470974,0.50392 0.02703,0.0271 0.04718,0.0622 0.07235,0.0915 -0.08847,-0.43382 -0.22914,-0.80639 -0.476,-1.05361 -0.335435,-0.33593 -0.825358,-0.50393 -1.470435,-0.50393 z m 20.671502,0 v 0.96209 h 1.86756 v -0.96209 z m 40.41712,0 c -0.91179,0 -1.62715,0.31583 -2.16839,0.91088 -0.23846,0.31137 -0.45547,0.66087 -0.64845,1.05361 -0.28612,0.72482 -0.43465,1.63325 -0.43465,2.73864 v 6.27862 h 0.40364 v -5.31709 c 0,-1.53316 0.27534,-2.70028 0.8258,-3.50132 0.55907,-0.80104 1.36778,-1.20125 2.42571,-1.20125 0.95469,0 1.63804,0.29248 2.05088,0.87819 10e-4,0.002 0.002,0.005 0.004,0.007 -0.10096,-0.38975 -0.23101,-0.72273 -0.40692,-0.96862 -0.41283,-0.58571 -1.09671,-0.87874 -2.05142,-0.87874 z m 8.29548,0 c -1.05793,0 -1.86609,0.40021 -2.42516,1.20125 -0.55047,0.80105 -0.82579,1.96869 -0.82579,3.50188 v 6.27862 h 0.40365 v -5.31709 c 0,-1.53316 0.27478,-2.70028 0.82524,-3.50132 0.55907,-0.80104 1.36779,-1.20125 2.4257,-1.20125 0.94883,0 1.62912,0.29445 2.04273,0.88146 -0.0999,-0.37954 -0.22574,-0.70873 -0.39494,-0.95228 -0.41286,-0.59432 -1.09672,-0.89127 -2.05143,-0.89127 z m -134.047364,0.21846 c -2.404765,-1.6e-4 -4.354172,1.95224 -4.354186,4.36045 1.4e-5,2.40823 1.949421,4.36061 4.354186,4.36045 2.404642,-2e-5 4.353629,-1.95233 4.353644,-4.36045 -1.5e-5,-2.40808 -1.949002,-4.36044 -4.353644,-4.36045 z m 157.844154,0.008 -0.58644,0.3808 -0.1942,-0.33613 -0.88074,3.15539 c -0.14288,-0.4462 -0.3055,-0.87106 -0.51081,-1.24919 0.17676,0.48628 0.3166,1.01347 0.41833,1.58151 l -0.55216,1.97811 h -9.49227 v 0.1035 c 0,1.58013 0.2696,2.8101 0.77683,3.73178 -0.2391,-0.7745 -0.37318,-1.68535 -0.37318,-2.77023 v -0.10296 h 8.81989 l -1.37252,4.91776 c -1.00976,0.73749 -2.33,1.10973 -3.9674,1.10973 -2.00404,0 -3.61702,-0.65863 -4.83834,-1.97648 -0.41427,-0.45312 -0.73148,-0.97559 -1.00424,-1.52921 0.30196,0.94913 0.76289,1.78528 1.40789,2.49076 1.22132,1.31785 2.83375,1.97702 4.8378,1.97702 1.23179,0 2.28453,-0.21076 3.16119,-0.62814 l -2.47793,8.8778 2.86308,-9.10443 c 0.15698,-0.0923 0.32221,-0.17466 0.4662,-0.2822 1.02353,-0.75797 1.72468,-1.89047 2.10312,-3.39782 h -0.71591 c -0.32327,0.82381 -0.77142,1.50256 -1.33825,2.04349 l 1.41441,-4.49828 h 0.87203 c -0.0135,-0.76292 -0.0924,-1.45467 -0.21052,-2.10341 z m -150.221063,0.70985 c 0.04827,0.10392 0.09176,0.20909 0.134912,0.31434 v -0.005 c -0.04458,-0.10347 -0.08586,-0.20866 -0.134367,-0.30998 z m 90.189973,0.11059 c 0.21298,0.71641 0.32966,1.56407 0.32966,2.57084 v 7.36439 h 0.4031 v -6.4023 c 0,-1.51079 -0.25317,-2.67599 -0.73276,-3.53293 z m -71.825032,0.0256 c 0.213982,0.71457 0.33184,1.55364 0.33184,2.54523 v 7.36439 h 0.403649 v -6.4023 c 0,-1.48641 -0.254653,-2.64338 -0.735489,-3.50732 z m 112.772012,0 c 0.21398,0.71457 0.33184,1.55364 0.33184,2.54523 v 7.36439 h 0.40366 v -6.4023 c 0,-1.48641 -0.25466,-2.64338 -0.7355,-3.50732 z m -8.23237,0.03 c 0.0189,0.0651 0.0453,0.1229 0.062,0.19013 0.006,-0.0126 0.0128,-0.0229 0.0185,-0.0354 -0.0269,-0.0515 -0.0516,-0.10502 -0.0805,-0.15472 z m -112.772015,5.4e-4 c 0.01883,0.065 0.04543,0.12254 0.06202,0.18959 0.0057,-0.0125 0.01224,-0.023 0.01795,-0.0354 -0.02679,-0.0513 -0.05125,-0.10466 -0.07996,-0.15417 z m 25.144284,1.07595 c 0.365763,1.00694 0.580598,2.17879 0.60493,3.55799 H 63.002177 v 0.1035 c 0,1.58107 0.269561,2.81158 0.777378,3.73341 -0.239443,-0.77483 -0.373729,-1.68619 -0.373729,-2.77186 v -0.10296 h 10.230489 c -0.03242,-1.8376 -0.369509,-3.34331 -1.008036,-4.52008 z m 39.338371,0.52789 c 0.26452,0.83201 0.40963,1.74957 0.40963,2.77132 0,2.1878 -0.60639,3.94542 -1.81914,5.27188 -1.20413,1.31785 -2.8082,1.97648 -4.81223,1.97648 -1.99544,0 -3.5995,-0.65863 -4.81225,-1.97648 -0.41426,-0.45312 -0.73146,-0.97559 -1.004211,-1.52921 0.301941,0.94912 0.762331,1.78528 1.407321,2.49076 1.21274,1.31784 2.81735,1.97702 4.81279,1.97702 2.00402,0 3.6081,-0.65918 4.81222,-1.97702 1.21275,-1.32647 1.81915,-3.08354 1.81915,-5.27134 0,-1.439 -0.28863,-2.67076 -0.81328,-3.73341 z m 32.92459,0 c 0.26451,0.83201 0.40963,1.74957 0.40963,2.77132 0,2.1878 -0.60639,3.94542 -1.81914,5.27188 -1.20414,1.31785 -2.8082,1.97648 -4.81223,1.97648 -1.99542,0 -3.5995,-0.65863 -4.81223,-1.97648 -0.41427,-0.45312 -0.73149,-0.97559 -1.00424,-1.52921 0.30196,0.94912 0.76288,1.78528 1.40788,2.49076 1.21273,1.31784 2.81682,1.97702 4.81222,1.97702 2.00405,0 3.60811,-0.65918 4.81225,-1.97702 1.21274,-1.32647 1.81914,-3.08354 1.81914,-5.27134 0,-1.439 -0.28863,-2.67076 -0.81328,-3.73341 z m 41.07699,2.62097 c 0.007,0.1424 0.0343,0.26206 0.0369,0.40913 h -0.16592 z m -137.805865,0.1983 c 0.09629,0.37519 0.114309,0.85829 0.03155,1.4878 -0.01082,0.0823 -0.02526,0.1543 -0.03809,0.23099 v -1.57988 c 0,-0.0493 0.006,-0.0904 0.0065,-0.13891 z m -10.676026,1.5608 c -0.687938,1.76282 -1.978556,3.34107 -3.784073,4.38496 -3.773726,2.1819 -8.450265,1.28168 -10.833785,-1.94704 1.538044,2.13276 4.039694,3.52584 6.859855,3.52584 3.468593,0 6.454823,-2.10648 7.758003,-5.10681 z m 6.072687,1.99827 c -1.02199,0.037 -2.041639,0.41204 -2.862535,1.83593 -0.209621,0.36358 -0.348719,0.70237 -0.439009,1.0231 h 0.920994 c 0.07995,-0.18756 0.170231,-0.37899 0.2856,-0.57911 1.217975,-2.11262 2.842138,-2.0666 4.318283,-1.89095 v -0.20483 c -0.557507,-0.0428 -1.165761,-0.15393 -1.785956,-0.18142 -0.14553,-0.007 -0.291378,-0.008 -0.437377,-0.003 z m 29.129638,0.0686 c -0.405732,1.03396 -0.999528,1.8497 -1.790852,2.43573 -1.014917,0.75798 -2.352562,1.13696 -4.012554,1.13696 -2.00403,0 -3.616463,-0.65863 -4.837803,-1.97647 -0.414268,-0.45312 -0.731473,-0.9756 -1.004226,-1.52922 0.301954,0.94913 0.762878,1.78528 1.407875,2.49076 1.221341,1.31785 2.833772,1.97702 4.837803,1.97702 1.659992,0 2.997637,-0.37899 4.012554,-1.13697 1.023518,-0.75797 1.724122,-1.89047 2.102565,-3.39781 z m 12.145377,0.92995 c -0.158698,0.76458 -0.45271,1.36127 -0.892709,1.77708 -0.610672,0.5771 -1.539778,0.86566 -2.786922,0.86566 -1.367555,0 -2.335119,-0.3014 -2.902787,-0.90434 -0.09608,-0.10349 -0.172603,-0.23624 -0.252417,-0.36391 0.141502,0.55665 0.35693,1.00374 0.656064,1.326 0.567669,0.60294 1.535232,0.90434 2.902795,0.90434 1.247143,0 2.176242,-0.28856 2.786914,-0.86566 0.610672,-0.5771 0.950105,-1.49024 1.018916,-2.73917 z m -35.017367,1.86043 v 0.4075 h -6.098799 v 0.96208 h 6.502448 v -1.36958 z m 8.373267,0 v 0.4075 h -6.17659 v 0.96208 h 6.579695 v -1.36958 z m 35.324181,0 v 0.4075 h -6.859855 v 0.96208 h 7.263502 v -1.36958 z m 27.854498,0 v 0.4075 h -6.17658 v 0.96208 h 6.58024 v -1.36958 z m 8.61807,0 v 0.4075 h -6.15048 v 0.96208 h 6.55413 v -1.36958 z m 24.30653,0 v 0.4075 h -6.17605 v 0.96208 h 6.57969 v -1.36958 z m 8.29547,0 v 0.4075 h -6.0988 v 0.96208 h 6.50244 v -1.36958 z m 8.37327,0 v 0.4075 h -6.17604 v 0.96208 h 6.57969 v -1.36958 z" />
  </g>
</svg>
